# xmcd
#
# Track frame offsets: 
#        150
#        13845
#        28960
#        45961
#        66818
#        80815
#        92834
#        110236
#        125314
#        139883
#        159028
#
# Disc length: 2322 seconds
#
# Revision: 0
# Processed by: cddbd v1.5.2PL0 Copyright (c) Steve Scherf et al.
# Submitted via: ExactAudioCopyFreeDBPlugin 1.0
#
DISCID=9109100b
DTITLE=Rock 'N' Roll Torpedoes - A Tribute To Kim Dollar
DYEAR=2005
DGENRE=Country
TTITLE0=Monkey Around
TTITLE1=Louisiana Doctor
TTITLE2=Memory Lane
TTITLE3=Funny How Time Slips Away
TTITLE4=Standing On The Corner
TTITLE5=Mary Mae
TTITLE6=Vertical Expression
TTITLE7=You Left The Water Running
TTITLE8=I Think I Love You Too Much
TTITLE9=Cry One More Time
TTITLE10=Baby, What You Want Me To Do
EXTD=
EXTT0=
EXTT1=
EXTT2=
EXTT3=
EXTT4=
EXTT5=
EXTT6=
EXTT7=
EXTT8=
EXTT9=
EXTT10=
PLAYORDER=
